<svg width="181" height="182" viewBox="0 0 181 182" fill="none" xmlns="http://www.w3.org/2000/svg">
<path d="M180.584 169.181L155.422 181.016L129.389 125.671L120.107 130.542C121.323 127.775 122 124.717 122 121.5C122 115.698 119.804 110.41 116.198 106.42L116.807 106.102L144.212 91.8545L180.584 169.181Z" fill="#212A40"/>
<path d="M99.8154 11.1943L88.0928 37.874L88.0889 37.8662L40.4297 146.189L77.5996 126.68C79.6188 135.25 86.5381 141.927 95.2383 143.595L25.458 180.221L25.4512 180.237L0 169.04L74.3721 0L99.8154 11.1943Z" fill="#212A40"/>
<path d="M139.456 81.7441L114.765 94.5801L94.3975 51.2793L109.239 17.5029L139.456 81.7441Z" fill="#82BC5D"/>
<path d="M112 120.5C112 127.404 106.627 133 100 133C93.3726 133 88 127.404 88 120.5C88 113.596 93.3726 108 100 108C106.627 108 112 113.596 112 120.5Z" fill="#1F283E"/>
</svg>
