<svg width="488" height="182" viewBox="0 0 488 182" fill="none" xmlns="http://www.w3.org/2000/svg">
<path d="M180.584 169.181L155.422 181.016L129.389 125.671L120.107 130.542C121.323 127.775 122 124.717 122 121.5C122 115.698 119.804 110.41 116.198 106.42L116.807 106.102L144.212 91.8545L180.584 169.181Z" fill="#FEFEFE"/>
<path d="M99.8154 11.1943L88.0928 37.874L88.0889 37.8662L40.4297 146.189L77.5996 126.68C79.6188 135.25 86.5381 141.927 95.2383 143.595L25.458 180.221L25.4512 180.237L0 169.04L74.3721 0L99.8154 11.1943Z" fill="#FEFEFE"/>
<path d="M139.456 81.7441L114.765 94.5801L94.3975 51.2793L109.239 17.5029L139.456 81.7441Z" fill="#82BC5D"/>
<path d="M112 120.5C112 127.404 106.627 133 100 133C93.3726 133 88 127.404 88 120.5C88 113.596 93.3726 108 100 108C106.627 108 112 113.596 112 120.5Z" fill="#FEFEFE"/>
<path d="M211.454 52.5537H223.583L248.28 115H236.898L229.911 98.6523H204.423L197.436 115H186.713L211.454 52.5537ZM226.044 88.501L217.167 65.3418L208.246 88.501H226.044Z" fill="#FEFEFE"/>
<path d="M251.884 71.582H264.672L277.812 87.4463L290.468 71.582H302.641L284.711 93.6865L301.762 115H288.974L276.449 100.059L264.54 115H252.411L269.638 93.6426L251.884 71.582Z" fill="#FEFEFE"/>
<path d="M333.49 70.7471C336.01 70.7471 338.266 71.0254 340.258 71.582C342.279 72.1094 343.935 72.7979 345.224 73.6475C346.542 74.4678 347.67 75.5518 348.607 76.8994C349.574 78.2178 350.307 79.4922 350.805 80.7227C351.303 81.9238 351.684 83.374 351.947 85.0732C352.24 86.7725 352.416 88.208 352.475 89.3799C352.533 90.5518 352.562 91.9434 352.562 93.5547V98.4766H319.911C320.526 100.645 322.27 102.534 325.141 104.146C328.012 105.728 331.791 106.519 336.479 106.519C339.789 106.519 343.158 106.021 346.586 105.024L348.388 104.497L350.541 112.847L348.959 113.374C344.066 115.044 338.852 115.879 333.314 115.879C329.447 115.879 326.02 115.454 323.031 114.604C320.043 113.755 317.641 112.656 315.824 111.309C314.037 109.961 312.558 108.335 311.386 106.431C310.243 104.526 309.452 102.622 309.013 100.718C308.573 98.8135 308.354 96.7773 308.354 94.6094C308.354 91.3867 308.808 88.4424 309.716 85.7764C310.653 83.0811 311.913 80.8252 313.495 79.0088C315.106 77.1631 316.981 75.6104 319.12 74.3506C321.288 73.0908 323.573 72.1826 325.976 71.626C328.378 71.04 330.883 70.7471 333.49 70.7471ZM331.688 80.5908C328.319 80.5908 325.624 81.4404 323.603 83.1396C321.581 84.8096 320.38 86.9043 319.999 89.4238H341.928C341.693 86.2598 340.697 84.0039 338.939 82.6562C337.182 81.2793 334.765 80.5908 331.688 80.5908Z" fill="#FEFEFE"/>
<path d="M367.064 48.5986H377.875V115H367.064V48.5986Z" fill="#FEFEFE"/>
<path d="M388.861 71.582H401.254L415.536 104.937L428.544 71.582H439.926L411.713 138.335H398.529L409.252 115.352L388.861 71.582Z" fill="#FEFEFE"/>
<path d="M475.917 102.036C475.858 101.304 475.287 100.659 474.203 100.103C473.148 99.5459 471.786 99.0479 470.116 98.6084C468.446 98.1689 466.615 97.7148 464.623 97.2461C462.631 96.7773 460.639 96.2061 458.646 95.5322C456.684 94.8291 454.882 94.0234 453.241 93.1152C451.601 92.1777 450.268 90.9619 449.242 89.4678C448.217 87.9443 447.704 86.2158 447.704 84.2822C447.704 83.1396 447.909 81.9971 448.319 80.8545C448.759 79.6826 449.535 78.4814 450.648 77.251C451.762 75.9912 453.168 74.8926 454.867 73.9551C456.566 73.0176 458.837 72.2559 461.679 71.6699C464.521 71.0547 467.729 70.7471 471.303 70.7471C473.412 70.7471 475.316 70.8643 477.016 71.0986C478.715 71.3037 479.916 71.4941 480.619 71.6699C481.322 71.8457 482.392 72.1533 483.827 72.5928L485.629 73.1201L482.641 81.9971L480.971 81.5576C477.162 80.5029 473.456 79.9756 469.853 79.9756C468.036 79.9756 466.439 80.1074 465.062 80.3711C463.686 80.6055 462.631 80.8984 461.898 81.25C461.195 81.5723 460.624 81.9678 460.185 82.4365C459.745 82.876 459.467 83.2568 459.35 83.5791C459.232 83.8721 459.174 84.1504 459.174 84.4141C459.174 85.0879 459.687 85.7031 460.712 86.2598C461.767 86.8164 463.129 87.3291 464.799 87.7979C466.469 88.2373 468.3 88.7207 470.292 89.248C472.313 89.7461 474.335 90.3613 476.356 91.0938C478.378 91.8262 480.224 92.6611 481.894 93.5986C483.563 94.5361 484.911 95.7373 485.937 97.2021C486.991 98.667 487.519 100.308 487.519 102.124C487.519 103.384 487.328 104.6 486.947 105.771C486.596 106.943 485.893 108.159 484.838 109.419C483.812 110.679 482.479 111.777 480.839 112.715C479.198 113.623 476.986 114.385 474.203 115C471.42 115.586 468.227 115.879 464.623 115.879C458.998 115.879 453.388 114.736 447.792 112.451L446.166 111.792L449.418 103.003L451.088 103.662C456.332 105.625 460.976 106.606 465.019 106.606C468.769 106.606 471.522 106.24 473.28 105.508C475.038 104.746 475.917 103.589 475.917 102.036Z" fill="#FEFEFE"/>
</svg>
